<?xml version="1.0" encoding="utf-8"?>
<!-- Generator: Adobe Illustrator 26.0.0, SVG Export Plug-In . SVG Version: 6.00 Build 0)  -->
<svg version="1.1" id="图层_1" xmlns="http://www.w3.org/2000/svg" xmlns:xlink="http://www.w3.org/1999/xlink" x="0px" y="0px"
	 viewBox="0 0 247 50" style="enable-background:new 0 0 247 50;" xml:space="preserve">
<style type="text/css">
	.st0{fill:#BF1A21;}
	.st1{fill:#F4D221;}
	.st2{fill:#FFFFFF;}
	.st3{fill:#CF2442;}
	.st4{fill:#DB6B75;}
	.st5{fill:#633619;}
	.st6{fill:#9A1E23;}
	.st7{fill:#C9C8C7;}
	.st8{fill:#CBA515;}
	.st9{fill:#130908;}
	.st10{fill:#CE131C;}
</style>
<g id="logo-new">
	<g id="qiaohu_logo" transform="translate(47.000000, 3.000000)">
		<g id="组_9">
			<g id="组_1" transform="translate(3.263344, 11.562343)">
				<path id="路径_1" class="st0" d="M10.91,19.06l0.03,0c-0.61,1.79-1.26,4.02-1.75,5.81c4.37,4.27,10.91,5.49,16.54,3.09
					c-0.02-1.1-0.05-2.49-0.11-3.96c0.79,0.72,1.72,1.29,2.73,1.66c0.82,0.31,1.69,0.45,2.57,0.42c1.15-0.06,2.09-0.48,2.52-1.18
					c1.16-1.88,0.82-4.4-0.4-6.36c-0.29,2.49-2.58,4.15-3.89,4.33c-0.91,0.17-1.82-0.3-2.2-1.14c-0.54-0.78-1.33-1.29-0.9-2.14
					c0.17-0.37,0.6-0.56,0.99-0.43c-0.24-0.28-0.32-0.67-0.21-1.02c-0.37-0.36-0.54-1.13-0.26-2.12c-0.56-0.26-1.13-0.49-1.71-0.69
					c-0.62,0.11-1.25,0.18-1.87,0.21c-2.31,1.21-7.97-0.21-8.27-1.7c-1.92-0.91-3.56-2.31-4.76-4.05c-1.2-1.84-1.81-4-1.73-6.19
					C7.44,2.28,6.48,1.07,5.39,0c-0.41,1.46-1.88,2.51-2.7,2.89C1.96,3.63,0.76,4.46-0.5,4.41C2.05,8.72,7.36,16.04,10.91,19.06z"/>
			</g>
			<g id="组_8">
				<g id="组_2" transform="translate(5.114427, 15.905596)">
					<path id="路径_2" class="st1" d="M36.39,9.8c0-3.47-0.99-6.88-2.88-9.8c-0.08,0.91-0.23,1.82-0.46,2.71
						c-0.19,0.77-0.45,1.52-0.77,2.25l-0.01-0.01c1.03,2.99,1.08,6.22,0.16,9.23v-0.01c1.15,2.18,1.27,4.64,0.31,6.53
						C35.11,17.56,36.39,13.73,36.39,9.8z"/>
					<path id="路径_3" class="st1" d="M29.12,22.83c-0.11,0.01-0.22,0.01-0.33,0.01c-0.87-0.01-1.74-0.16-2.56-0.46l0,0
						c-4.66,3.02-10.6,3.26-15.5,0.64s-7.94-7.7-7.94-13.21c0-0.12,0.01-0.23,0.01-0.35C1.82,8.2,0.87,6.91-0.02,5.65
						c-1.91,8.14,1.97,16.52,9.45,20.38s16.63,2.2,22.25-4.03C30.92,22.52,30.03,22.8,29.12,22.83L29.12,22.83z"/>
				</g>
				<g id="组_4">
					<path id="路径_4" class="st1" d="M26.25,27.1c-2.86,0.11-5.69-0.47-8.27-1.7C18.28,26.89,23.94,28.31,26.25,27.1z"/>
					<path id="路径_5" class="st1" d="M32.65,25.07c2.09-1.44,3.68-3.66,4.44-6.71c0.55-2.03,0.63-4.16,0.23-6.23
						c3.11-0.7,3.42-4.6,1.94-6.53C37.73,3.6,34.62,2.51,32.61,5c-3.42-2.37-7.69-3.2-11.76-2.27c-0.9-3.11-4.23-3.26-6.41-1.97
						C12.32,2,11.14,5.75,13.79,7.55c-1.44,2.28-2.24,4.91-2.29,7.6c-0.07,2.19,0.53,4.35,1.73,6.19L32.65,25.07z"/>
					<path id="路径_6" class="st2" d="M15.43,5.61c0.89-0.84,1.91-1.53,3.01-2.04c-0.45-1.27-1.76-1.16-2.63-0.71
						C14.98,3.29,14.48,4.81,15.43,5.61z"/>
					<path id="路径_7" class="st2" d="M34.52,6.67c0.84,0.9,1.52,1.92,2.03,3.04C37.7,9.3,37.8,7.73,37.2,7.03
						C36.57,6.3,35.42,5.71,34.52,6.67z"/>
					<path id="路径_8" class="st2" d="M29.52,19.45c-1.64-1.32-3.29-2.57-5.28-2.96c-1.55-0.3-3.67,0.08-5.71,0.62
						c-2.42,0.63-4.61,1.91-5.31,4.23c1.19,1.75,2.84,3.15,4.76,4.05c2.57,1.23,5.41,1.82,8.27,1.7c0.63-0.03,1.25-0.1,1.87-0.21
						c1.62-0.28,3.17-0.9,4.52-1.82C32.76,22.84,31.35,20.92,29.52,19.45z"/>
					<path id="路径_9" class="st3" d="M19.29,18.23c-0.61,0.71-0.53,3.16,0.47,5.04c1.85-1.74,5.14-0.85,5.74,1.54
						c1.84-1.36,2.79-4.07,2.63-4.83C27.98,19.26,19.66,17.8,19.29,18.23z"/>
					<path id="路径_10" class="st4" d="M19.76,23.26c0.5,1.07,1.44,1.88,2.59,2.21c1.1,0.27,2.27,0.02,3.16-0.68
						C24.9,22.41,21.61,21.53,19.76,23.26z"/>
					<path id="路径_11" class="st5" d="M24.06,17.64c0.54,0.11,1.08-0.19,1.25-0.71c0.02-0.28-2.09-0.64-2.17-0.36
						C23.15,17.1,23.53,17.55,24.06,17.64z"/>
					<path id="路径_12" class="st2" d="M18.43,10.96c-0.72-0.06-1.26,2.22-0.4,2.34C18.88,13.42,19.26,11.02,18.43,10.96z"/>
					<path id="路径_13" class="st2" d="M30.84,13.35c-0.79-0.25-1.35,2.12-0.51,2.32S31.53,13.56,30.84,13.35z"/>
					<path id="路径_14" class="st1" d="M5.95,14.46c0.82-0.38,2.29-1.44,2.7-2.89c0.14-0.48,0.15-1,0.02-1.49
						C8.52,9.26,7.9,8.61,7.09,8.4C7.08,8.36,7.08,8.31,7.07,8.27C6.87,7.65,6.43,7.12,5.85,6.8C5.07,6.35,4.1,6.22,3.43,6.83
						C3.17,7.11,3.01,7.46,2.96,7.84C2.64,7.83,2.33,7.95,2.1,8.17C1.69,8.49,1.5,9.01,1.6,9.52c-0.85,0.21-1.42,0.99-1.36,1.85
						c-0.01,0.01-0.01,0.01-0.02,0.02c-0.36,0.22-0.61,0.58-0.69,0.99s0.01,0.84,0.26,1.18c0.9,1.74,1.96,2.37,2.98,2.42
						C4.03,16.03,5.22,15.19,5.95,14.46z"/>
					<path id="路径_15" class="st1" d="M30.1,29.7c-0.11,0.35-0.03,0.74,0.21,1.02c-0.39-0.12-0.82,0.06-0.99,0.43
						c-0.43,0.85,0.36,1.36,0.9,2.14c0.38,0.84,1.29,1.31,2.2,1.14c1.31-0.18,3.59-1.84,3.89-4.33c0.07-0.64,0.02-1.29-0.17-1.91
						c-0.66-2.32-3.22-3.58-4.23-2.13c-0.04,0.05-0.07,0.11-0.1,0.16c-0.77-0.21-1.63,0.18-1.96,1.32c0,0.01-0.01,0.03-0.01,0.04
						C29.56,28.56,29.72,29.34,30.1,29.7z"/>
					<path id="路径_16" class="st6" d="M14.24,30.5c0.02-0.07,0.04-0.13,0.07-0.19c0.02-0.06,0.05-0.13,0.07-0.2
						c0.02-0.07,0.04-0.12,0.06-0.18l0.02-0.06c0.01-0.06,0.03-0.12,0.06-0.18c0.01-0.01,0.02-0.03,0.02-0.04l0.01-0.02l0.02-0.04
						c0.03-0.09,0.07-0.19,0.1-0.28c0.01-0.02,0.02-0.04,0.02-0.06c0.04-0.1,0.07-0.19,0.11-0.28c0.01-0.02,0.01-0.04,0.02-0.06
						c0.03-0.08,0.06-0.16,0.1-0.24l0.02-0.04c0.03-0.08,0.07-0.16,0.1-0.24c0.01-0.02,0.02-0.03,0.02-0.05
						c0.03-0.08,0.07-0.15,0.1-0.22c0,0-0.01,0-0.01,0c-0.09,0.01-0.48,0.57-0.92,1.52c-0.11,0.23-0.22,0.48-0.33,0.75l0.02,0.02
						c0.08,0.07,0.17,0.15,0.25,0.21l0.03,0C14.22,30.58,14.23,30.54,14.24,30.5z"/>
					<path id="路径_17" class="st6" d="M31.64,34.41c-0.06-0.01-0.12-0.03-0.18-0.04c-0.01,0-0.02,0-0.03-0.01
						c0.08,0.19,0.19,0.38,0.31,0.55c0.19,0.25,0.42,0.46,0.68,0.63c0.05-0.07-0.07-0.27-0.22-0.55c-0.09-0.17-0.18-0.35-0.25-0.53
						h-0.01c-0.08,0-0.17-0.01-0.25-0.03C31.68,34.42,31.66,34.42,31.64,34.41z"/>
					<path id="路径_18" class="st6" d="M27.84,27.25c-0.35,0.29-0.76,0.51-1.19,0.66c-0.54,0.18-1.09,0.3-1.66,0.35
						c-0.96,0.08-1.92,0.05-2.87-0.11c-1.78-0.28-3.33-0.89-4.19-1.65c-0.35-0.29-0.63-0.65-0.83-1.06
						c-0.06-0.11-0.11-0.23-0.15-0.35c-0.04-0.08-0.07-0.13-0.08-0.13c0.05,0.56,0.28,1.09,0.65,1.52c0.37,0.43,0.81,0.79,1.31,1.06
						c1,0.54,2.09,0.9,3.21,1.06c0.86,0.14,1.73,0.16,2.6,0.09c0.26-0.03,0.53-0.06,0.79-0.11c0.56-0.1,1.1-0.28,1.6-0.54
						c0.5-0.25,0.92-0.64,1.22-1.12l0,0l-0.03-0.01l0,0c-0.03,0.02-0.07,0.04-0.1,0.07C28.04,27.08,27.94,27.17,27.84,27.25z"/>
					<path id="路径_19" class="st6" d="M28.93,31.72c-0.2-1.03-0.41-1.66-0.48-1.65l0,0c0.02,0.13,0.03,0.26,0.05,0.4
						c0.01,0.05,0.01,0.1,0.02,0.15c0.01,0.08,0.02,0.17,0.03,0.26c0.01,0.06,0.01,0.12,0.02,0.18c0.01,0.08,0.02,0.16,0.03,0.24
						c0.01,0.06,0.01,0.12,0.02,0.18c0.01,0.08,0.02,0.16,0.02,0.24l0,0.02c-0.01-0.02-0.02-0.04-0.03-0.06
						c-0.27-0.52-0.61-1-1.01-1.43c-0.11-0.12-0.22-0.24-0.33-0.35c-0.44-0.49-0.95-0.91-1.52-1.26l0,0c0.4,0.4,0.81,0.8,1.2,1.21
						c0.17,0.18,0.34,0.36,0.5,0.54c0.27,0.3,0.53,0.61,0.77,0.94c0.17,0.23,0.33,0.48,0.46,0.74v0.02
						c0.02,0.27,0.04,0.54,0.06,0.81l0,0.05c0.02,0.27,0.04,0.54,0.05,0.82l0,0.06c0.02,0.27,0.03,0.55,0.05,0.82l0,0.06
						c0.01,0.27,0.03,0.54,0.04,0.81v0.04l0.01,0.01c0.15,0.13,0.29,0.25,0.44,0.37c0.01,0.01,0.02,0.02,0.03,0.03
						c0-0.06,0-0.11-0.01-0.17C29.32,34.43,29.17,33.07,28.93,31.72L28.93,31.72z"/>
					<path id="路径_20" class="st6" d="M14.47,29.88c0.1-0.17,0.23-0.32,0.38-0.45c0.15-0.13,0.3-0.25,0.46-0.37
						c0.32-0.23,0.65-0.45,0.99-0.65c0.05-0.03,0.11-0.06,0.16-0.1c0.62-0.37,1.27-0.7,1.95-0.98c0-0.01-0.03-0.01-0.07-0.01
						c-0.21,0.03-0.42,0.09-0.62,0.17c-0.53,0.2-1.04,0.44-1.53,0.73c-0.02,0.01-0.04,0.02-0.06,0.04c-0.47,0.28-0.9,0.61-1.29,1
						c-0.11,0.11-0.21,0.24-0.29,0.38c-0.03,0.07-0.05,0.14-0.08,0.22C14.47,29.87,14.47,29.88,14.47,29.88z"/>
					<path id="路径_21" class="st6" d="M27.69,33.19c-0.04,0.1-0.07,0.2-0.1,0.31l-0.11,0.4c-0.05,0.17-0.12,0.33-0.19,0.5
						c-0.16,0.39-0.45,0.71-0.81,0.93c-0.24,0.14-0.52,0.22-0.79,0.24c-0.22,0.02-0.44,0.01-0.66-0.02
						c-0.48-0.05-0.9-0.32-1.16-0.73c-0.06-0.09-0.11-0.19-0.16-0.3c-0.04-0.1-0.08-0.21-0.11-0.32c-0.01-0.05-0.03-0.11-0.04-0.16
						s-0.02-0.11-0.03-0.16c-0.02-0.1-0.03-0.2-0.04-0.3c-0.02-0.2-0.02-0.38-0.02-0.54c0-0.17,0.01-0.31,0.01-0.42
						c0.01-0.1,0.01-0.2,0-0.3c-0.03-0.04-0.04-0.07-0.04-0.09c-0.11,0.37-0.19,0.76-0.23,1.14c-0.04,0.39,0,0.78,0.1,1.16
						c0.1,0.38,0.31,0.72,0.59,0.99c0.3,0.26,0.67,0.42,1.06,0.48c0.24,0.03,0.48,0.04,0.71,0.02c0.15-0.01,0.31-0.04,0.46-0.09
						c0.38-0.11,0.72-0.32,0.98-0.61c0.26-0.3,0.43-0.65,0.52-1.04c0.09-0.38,0.13-0.77,0.11-1.16
						C27.74,33.16,27.72,33.18,27.69,33.19z"/>
					<path id="路径_22" class="st6" d="M25.48,33.23c0.53,0.11,1.08,0.14,1.62,0.1c0.2-0.01,0.4-0.05,0.59-0.14
						c0.02-0.04,0.03-0.05,0.05-0.06l0,0c-0.72-0.11-1.45-0.22-2.17-0.36c-0.72-0.15-1.43-0.33-2.13-0.53
						c0.02,0.01,0.03,0.04,0.04,0.09C24.05,32.81,24.74,33.12,25.48,33.23z"/>
					<path id="路径_23" class="st7" d="M32.66,24.63L32.66,24.63c-0.11,0.08-0.22,0.15-0.33,0.22c-0.88,0.56-1.84,0.99-2.85,1.28
						c-0.8,0.23-1.61,0.39-2.44,0.46c-1.58,0.14-3.16,0.05-4.71-0.26c-2.38-0.42-4.63-1.39-6.56-2.84c-0.82-0.64-1.55-1.4-2.16-2.24
						c-0.08-0.11-0.15-0.22-0.23-0.33v0c-0.06,0.14-0.11,0.28-0.15,0.43l0.02,0.02c0.1,0.15,0.2,0.29,0.31,0.44
						c0.02,0.03,0.04,0.05,0.06,0.08c0.12,0.16,0.25,0.32,0.38,0.47c0.39,0.45,0.81,0.87,1.26,1.26c0.01,0.01,0.02,0.01,0.02,0.02
						c0.14,0.12,0.29,0.24,0.44,0.36L15.73,24c0.63,0.48,1.3,0.91,2,1.27c0.53,0.27,1.08,0.52,1.64,0.73l0,0
						c0.19,0.07,0.37,0.14,0.56,0.2l0.01,0c0.19,0.06,0.37,0.12,0.56,0.18l0.01,0c0.53,0.16,1.08,0.29,1.62,0.4
						c0.04,0.01,0.08,0.02,0.11,0.02l0,0c0.15,0.03,0.29,0.05,0.44,0.08c0.05,0.01,0.09,0.02,0.14,0.02
						c0.18,0.03,0.36,0.05,0.55,0.08l0.04,0.01c0.18,0.02,0.37,0.04,0.55,0.06l0.04,0c0.18,0.02,0.37,0.03,0.55,0.04l0.04,0
						c0.19,0.01,0.37,0.02,0.56,0.02h0.04c0.19,0,0.37,0,0.56,0h0.03c0.19,0,0.37-0.01,0.56-0.02h0.04
						c0.18-0.01,0.37-0.02,0.55-0.04l0.03,0l0.04,0h0c0.79-0.08,1.57-0.22,2.34-0.44h0.01c0.19-0.05,0.37-0.11,0.56-0.17l0.01,0
						c0.57-0.19,1.12-0.42,1.64-0.7c0.18-0.09,0.36-0.2,0.53-0.3c0.03-0.02,0.06-0.04,0.08-0.05c0.15-0.09,0.31-0.19,0.45-0.29
						c0.01-0.01,0.02-0.01,0.03-0.02C32.66,24.92,32.66,24.77,32.66,24.63z"/>
					<g id="组_3" transform="translate(0.288942, 6.804791)">
						<path id="路径_24" class="st8" d="M36.81,11.55c-0.08,0.11-0.13,0.23-0.17,0.35c-0.08,0.24-0.22,0.58-0.41,1.02
							c-0.23,0.53-0.49,1.04-0.78,1.54c-0.39,0.65-0.84,1.26-1.34,1.83c-0.52,0.57-1.11,1.09-1.75,1.53c0.01,0.14,0.01,0.29,0,0.44
							c0.02-0.01,0.04-0.03,0.05-0.04c0.94-0.66,1.76-1.46,2.43-2.38l0,0c0.11-0.16,0.23-0.32,0.33-0.48l0.01-0.02
							c0.1-0.16,0.2-0.32,0.3-0.49l0.01-0.01c0.39-0.68,0.72-1.4,0.97-2.15c0-0.01,0.01-0.02,0.01-0.03
							c0.06-0.18,0.12-0.35,0.17-0.53C36.7,11.94,36.76,11.74,36.81,11.55L36.81,11.55z"/>
						<path id="路径_25" class="st8" d="M11.49,9.86c-0.08-0.57-0.13-1.14-0.14-1.72c-0.01-0.48,0-0.85,0.01-1.1s0-0.39-0.02-0.39
							c-0.03,0.2-0.05,0.4-0.07,0.6c-0.02,0.19-0.03,0.37-0.04,0.56c0,0.01,0,0.02,0,0.03c-0.05,0.79-0.02,1.57,0.09,2.35l0,0.02
							c0.03,0.19,0.06,0.38,0.09,0.56l0.01,0.03c0.04,0.19,0.08,0.38,0.13,0.56v0v0.01c0.28,1.11,0.74,2.16,1.36,3.12
							c0.01,0.02,0.02,0.04,0.04,0.06c0.04-0.15,0.09-0.29,0.15-0.43c-0.42-0.65-0.77-1.34-1.04-2.06
							C11.79,11.34,11.6,10.6,11.49,9.86L11.49,9.86z"/>
						<path id="路径_26" class="st8" d="M8.19,2.73L8.19,2.73C8.1,2.55,8,2.39,7.87,2.25c-0.06-0.07-0.13-0.14-0.2-0.2L7.66,2.04
							C7.52,1.91,7.36,1.81,7.18,1.73l-0.01,0C7.09,1.68,7,1.65,6.91,1.62C6.87,1.61,6.84,1.6,6.8,1.6L6.8,1.57
							c-0.01-0.05-0.02-0.1-0.04-0.16c0-0.01-0.01-0.03-0.01-0.04C6.74,1.34,6.73,1.32,6.72,1.3S6.71,1.26,6.7,1.24
							C6.68,1.18,6.65,1.12,6.62,1.07C6.61,1.05,6.6,1.04,6.59,1.02C6.57,0.97,6.54,0.92,6.51,0.88C6.5,0.86,6.49,0.85,6.48,0.83
							L6.47,0.82C6.46,0.81,6.46,0.8,6.45,0.79C6.4,0.73,6.35,0.67,6.3,0.61C6.28,0.59,6.26,0.57,6.24,0.55
							C6.19,0.5,6.15,0.45,6.1,0.4C6.07,0.38,6.05,0.36,6.03,0.34C5.97,0.29,5.91,0.24,5.85,0.2C5.84,0.19,5.82,0.17,5.81,0.16
							C5.73,0.11,5.64,0.05,5.56,0C5.52,0.07,5.71,0.3,5.93,0.65c0.13,0.19,0.23,0.39,0.32,0.6c0.04,0.09,0.06,0.19,0.08,0.29v0
							c-0.08,0-0.15,0-0.23,0.01C5.59,1.59,5.11,1.82,4.78,2.21C4.74,2.26,4.69,2.32,4.66,2.38l0-0.01v0
							C4.53,2.17,4.39,1.99,4.22,1.83c-0.35-0.37-0.8-0.63-1.3-0.77C2.91,1.15,3.21,1.31,3.57,1.67c0.21,0.2,0.39,0.43,0.56,0.67
							C4.25,2.52,4.35,2.7,4.44,2.9c0-0.01,0.01-0.01,0.01-0.02c0-0.01,0.01-0.03,0.01-0.04C4.44,2.87,4.43,2.92,4.42,2.96l0,0.01
							l0,0.02l0,0.02L4.41,3.05C4.4,3.1,4.39,3.16,4.38,3.21c0,0.02,0,0.04-0.01,0.06c-0.02,0.19-0.02,0.39,0,0.58
							c0.01,0.1,0.03,0.19,0.06,0.28c0.03,0.08,0.06,0.15,0.1,0.23v0C4.47,4.5,4.37,4.62,4.25,4.71C4.14,4.8,4.01,4.86,3.88,4.89
							l-0.01,0c-0.22-0.51-0.57-0.96-1-1.32C2.44,3.21,1.97,2.9,1.47,2.66c0,0.01,0,0.02,0,0.03c0,0.01,0.01,0.02,0.01,0.03
							c0.2,0.25,0.43,0.47,0.67,0.68C2.4,3.62,2.63,3.86,2.84,4.12c0.25,0.28,0.45,0.59,0.59,0.93C3.46,5.13,3.49,5.21,3.51,5.3
							c0.01,0.08,0.03,0.17,0.03,0.2C3.52,5.63,3.48,5.75,3.41,5.86C3.25,6.1,3.04,6.31,2.8,6.46C2.75,6.5,2.71,6.52,2.69,6.53
							C2.66,6.54,2.64,6.55,2.61,6.55c-0.01,0-0.02,0-0.03,0C2.5,6.54,2.42,6.51,2.35,6.47L2.33,6.46L2.3,6.42
							C2.27,6.37,2.22,6.31,2.18,6.26C2.09,6.14,1.99,6.03,1.89,5.93C1.73,5.77,1.57,5.61,1.4,5.46C1.31,5.39,1.22,5.32,1.13,5.25
							C0.92,5.1,0.7,4.96,0.46,4.86c-0.03,0.08,0.29,0.32,0.7,0.79C1.4,5.91,1.62,6.19,1.83,6.48c0.05,0.07,0.1,0.15,0.14,0.23
							c0.01,0.02,0.02,0.05,0.02,0.07C2,6.81,2,6.84,2,6.86C2,7,1.96,7.14,1.89,7.26C1.81,7.41,1.69,7.53,1.56,7.63
							c-0.08,0.06-0.17,0.1-0.27,0.11H1.26H1.25c-0.01,0-0.01,0-0.02,0c-0.01,0-0.01,0-0.02,0h0C1.19,7.72,1.17,7.72,1.16,7.71
							L1.09,7.67L0.84,7.54C0.68,7.45,0.54,7.37,0.4,7.29C0.12,7.08-0.18,6.9-0.49,6.74c-0.01,0-0.01,0-0.01,0
							c0.12,0.18,0.26,0.34,0.41,0.49c0.1,0.1,0.22,0.21,0.34,0.31c0.18,0.15,0.36,0.28,0.55,0.41c0.12,0.09,0.25,0.16,0.4,0.19
							C1.27,8.16,1.33,8.16,1.4,8.15c0.09-0.01,0.17-0.03,0.25-0.07c0.27-0.13,0.5-0.33,0.65-0.59c0.14-0.23,0.2-0.51,0.15-0.77
							l0.01,0l0,0c0.01,0.01,0.02,0.01,0.03,0.02C2.54,6.77,2.6,6.78,2.66,6.79c0.03,0,0.07,0,0.1-0.01h0
							c0.27-0.08,0.52-0.21,0.73-0.4C3.71,6.2,3.87,5.96,3.96,5.7C4,5.56,4,5.42,3.98,5.29C3.97,5.21,3.96,5.14,3.94,5.07
							c0.04,0,0.09,0,0.13,0c0.07-0.01,0.13-0.02,0.19-0.04c0.21-0.07,0.4-0.2,0.54-0.38l0,0C4.79,4.64,4.78,4.63,4.77,4.62
							c0.07,0.05,0.16,0.09,0.24,0.1c0.06,0.01,0.12,0.01,0.18,0c0.13-0.02,0.26-0.05,0.38-0.11c0.34-0.2,0.62-0.47,0.85-0.78
							c-0.01,0-0.01-0.01-0.02,0C6.28,3.88,6.18,3.94,6.08,4.02C5.85,4.2,5.58,4.34,5.3,4.42l-0.02,0C5.16,4.44,5.04,4.4,4.96,4.32
							c-0.1-0.14-0.15-0.3-0.15-0.47C4.79,3.61,4.81,3.36,4.86,3.12c0.02-0.11,0.05-0.22,0.1-0.33c0.05-0.1,0.11-0.2,0.18-0.29
							C5.43,2.19,5.82,2,6.24,1.96c0.05,0,0.1-0.01,0.14-0.01C6.79,1.94,7.2,2.07,7.53,2.31C7.77,2.5,7.98,2.72,8.15,2.98
							c0.13,0.18,0.2,0.3,0.24,0.3h0C8.34,3.09,8.28,2.91,8.19,2.73L8.19,2.73z"/>
						<path id="路径_27" class="st8" d="M30.7,22.18L30.7,22.18L30.7,22.18l-0.02,0l0,0h-0.01h0h0h0l0,0
							c-0.37,0.07-0.68,0.32-0.85,0.66c-0.01,0.03-0.02,0.06-0.03,0.1v0c-0.01-0.01-0.01-0.02-0.02-0.03
							c-0.09-0.15-0.15-0.32-0.19-0.49c-0.08-0.35-0.1-0.72-0.04-1.08c0.01-0.08,0.02-0.15,0.03-0.22c0.01-0.06,0.02-0.12,0.02-0.18
							c0-0.03,0-0.07,0-0.1c0-0.04-0.01-0.07-0.04-0.1c-0.19,0.26-0.33,0.54-0.42,0.85c-0.08,0.31-0.08,0.63-0.01,0.94
							c0.07,0.31,0.24,0.59,0.48,0.8c0.02,0.01,0.04,0.03,0.05,0.04c0,0,0.01,0.01,0.01,0.01l0.02,0.01l0.02,0.01l0.02,0.01
							c0.01,0.01,0.03,0.01,0.04,0.02l0.01,0v-0.01l0,0l0-0.01l0,0.01l0,0c0,0.01,0.01,0.03,0.01,0.04
							c0.01,0.02,0.01,0.04,0.02,0.06c0,0.01,0.01,0.02,0.01,0.03c0.01,0.03,0.03,0.06,0.04,0.09l0.02,0.04
							c0.02,0.03,0.03,0.06,0.05,0.08c0.01,0.02,0.02,0.03,0.03,0.04c0.02,0.02,0.03,0.05,0.05,0.07l0,0l0,0
							c0.01,0,0.02,0.01,0.04,0.01c0.05,0.01,0.1,0.02,0.15,0.04c0.02,0.01,0.04,0.01,0.06,0.02c0.07,0.02,0.14,0.05,0.21,0.08
							l0.02,0.01c0.06,0.03,0.13,0.06,0.19,0.1c0.02,0.01,0.04,0.03,0.06,0.04c0.05,0.03,0.1,0.06,0.15,0.09
							c0.01,0.01,0.03,0.02,0.04,0.02c0.01,0.01,0.03,0.02,0.04,0.03c0.02,0.01,0.04,0.03,0.06,0.04c0.02,0.02,0.03,0.02,0.04,0.03
							c0-0.01,0-0.02,0-0.03c-0.02-0.1-0.06-0.2-0.13-0.27c-0.01-0.01-0.02-0.02-0.02-0.03c-0.07-0.07-0.15-0.13-0.23-0.18
							c-0.07-0.05-0.13-0.1-0.21-0.15c-0.03-0.02-0.05-0.04-0.08-0.06v-0.02v0l-0.01-0.02l-0.03-0.05
							c-0.02-0.03-0.03-0.06-0.05-0.09c-0.03-0.05-0.05-0.11-0.07-0.17c-0.04-0.12-0.05-0.26-0.02-0.38
							c0.03-0.13,0.1-0.25,0.18-0.36c0.17-0.21,0.35-0.34,0.36-0.43v-0.02C30.75,22.17,30.72,22.18,30.7,22.18L30.7,22.18z"/>
						<path id="路径_28" class="st8" d="M32.76,20.4c-0.04-0.02-0.09-0.04-0.14-0.07c-0.11-0.05-0.23-0.09-0.35-0.13
							c-0.09-0.03-0.19-0.05-0.28-0.07c-0.07-0.01-0.17-0.03-0.2-0.04l-0.01,0.01h-0.03c-0.02-0.04-0.04-0.08-0.05-0.13
							c-0.02-0.1-0.03-0.21-0.03-0.31c0.01-0.13,0-0.27-0.04-0.4l-0.02-0.02c-0.12,0.17-0.21,0.36-0.27,0.56
							c0,0.01-0.01,0.02-0.01,0.04v0c-0.01,0.04-0.01,0.07-0.02,0.11v0.01c-0.01,0.16,0.02,0.31,0.09,0.45l0,0.01l0.02,0l0.05-0.01
							c0.02,0,0.04-0.01,0.06-0.01h0.04c0.03,0,0.06,0,0.08,0s0.06,0,0.09,0c0.03,0,0.06,0,0.09,0c0.03,0,0.06,0,0.09,0.01
							c0.03,0,0.06,0.01,0.09,0.01c0.03,0,0.06,0.01,0.09,0.01s0.06,0.01,0.09,0.02s0.06,0.01,0.09,0.02s0.06,0.01,0.09,0.02
							l0.09,0.03c0.03,0.01,0.06,0.02,0.09,0.03s0.06,0.02,0.09,0.03c0.03,0.01,0.06,0.02,0.09,0.03c0.03,0.01,0.06,0.02,0.08,0.04
							c0.03,0.01,0.06,0.03,0.08,0.04c0.02,0.01,0.03,0.01,0.05,0.02L33,20.73c0.03,0.02,0.06,0.03,0.09,0.05
							c0.01,0.01,0.03,0.02,0.04,0.02c0.01-0.06-0.01-0.12-0.05-0.15C32.99,20.55,32.88,20.47,32.76,20.4z"/>
						<path id="路径_29" class="st8" d="M31.73,22.12c-0.1-0.04-0.23-0.06-0.36-0.11c-0.07-0.02-0.14-0.05-0.21-0.08l-0.11-0.05
							c-0.03-0.01-0.06-0.03-0.09-0.05c-0.02-0.01-0.03-0.04-0.03-0.06c0-0.02-0.02-0.06-0.03-0.13c-0.01-0.08-0.02-0.17-0.02-0.25
							v-0.07V21.3c0-0.03,0-0.05,0.01-0.08c0.02-0.12,0.07-0.23,0.14-0.33c0.15-0.21,0.34-0.35,0.32-0.43l-0.02,0l0,0
							c-0.04,0.01-0.07,0.02-0.11,0.03c-0.25,0.06-0.46,0.2-0.62,0.4l-0.02,0.03c-0.03,0.04-0.05,0.08-0.07,0.13
							c-0.04,0.08-0.06,0.17-0.07,0.25l0,0c-0.01,0.07-0.01,0.14-0.01,0.22c0,0.07,0,0.15,0.01,0.22c0.01,0.15,0.08,0.28,0.18,0.39
							c0.03,0.03,0.06,0.05,0.09,0.07c0.02-0.01,0.05-0.01,0.07-0.02l0,0h0.02c0.03-0.01,0.07-0.01,0.1-0.02
							c0.03,0,0.05-0.01,0.08-0.01h0.02c0.04,0,0.09,0,0.13-0.01c0.03,0,0.05,0,0.08,0c0.06,0,0.11,0.01,0.17,0.01
							c0.02,0,0.04,0,0.05,0c0.08,0.01,0.15,0.02,0.23,0.04c0.02,0,0.04,0.01,0.05,0.02c0.06,0.01,0.11,0.03,0.17,0.05l0.01,0l0,0
							l-0.01-0.03C31.84,22.17,31.79,22.14,31.73,22.12L31.73,22.12z"/>
						<path id="路径_30" class="st8" d="M29.58,25.29c-0.14-0.17-0.27-0.35-0.37-0.55c-0.08-0.17-0.1-0.36-0.18-0.4
							c-0.02,0.05-0.05,0.1-0.06,0.15c-0.04,0.1-0.06,0.21-0.06,0.32v0c0,0.05,0,0.11,0.01,0.16l0,0v0c0.01,0.05,0.02,0.1,0.04,0.16
							l0,0c0.06,0.15,0.14,0.3,0.23,0.43c0.09,0.12,0.18,0.24,0.28,0.35l0,0c0.08,0.09,0.15,0.18,0.23,0.28
							c0.01,0.01,0.01,0.02,0.02,0.02c0.02,0.02,0.03,0.04,0.05,0.06c0.01,0.01,0.02,0.03,0.03,0.04c0.04,0.06,0.09,0.11,0.13,0.17
							c0.01,0.01,0.01,0.02,0.02,0.02c0.02,0.03,0.03,0.05,0.05,0.08l0.03-0.04c0.04-0.15,0.03-0.31-0.02-0.45
							C29.91,25.81,29.76,25.53,29.58,25.29L29.58,25.29z"/>
					</g>
					<path id="路径_31" class="st9" d="M23.22,2.79c-0.24,0.04-0.45,0.08-0.64,0.13c-0.16,0.04-0.32,0.1-0.48,0.16
						c-0.26,0.13-0.39,0.23-0.38,0.31c0.01,0.08,0.16,0.17,0.41,0.26c0.12,0.05,0.27,0.1,0.44,0.15s0.37,0.12,0.58,0.17
						c0.59,0.17,1.32,0.36,2.15,0.55c-0.01,0.19-0.01,0.37-0.02,0.55c-1.22-0.02-2.11,0.31-2.15,0.55
						c-0.04,0.28,0.92,0.88,2.22,1.25c0.1,0.92,0.27,1.49,0.49,1.54c0.22,0.05,0.64-0.41,1.1-1.24c0.44,0.05,0.88,0.06,1.32,0.04
						c0.59-0.03,1-0.14,1.05-0.29c0.05-0.16-0.2-0.5-0.71-0.85c-0.29-0.2-0.59-0.37-0.91-0.5c0.07-0.18,0.14-0.36,0.21-0.55
						c0.77,0.12,1.46,0.21,2.02,0.27c0.44,0.05,0.81,0.08,1.07,0.09c0.27,0.01,0.44-0.01,0.48-0.08c0.04-0.07-0.04-0.22-0.23-0.43
						c-0.28-0.27-0.59-0.51-0.92-0.7c-0.59-0.35-1.23-0.63-1.88-0.84c0.03-0.11,0.06-0.21,0.08-0.32c-0.51-0.16-1.02-0.28-1.55-0.39
						c-0.49-0.1-0.99-0.16-1.49-0.21c-0.01,0.1-0.03,0.21-0.04,0.31C24.7,2.67,23.95,2.69,23.22,2.79L23.22,2.79z"/>
					<path id="路径_32" class="st9" d="M12.31,15.52c0.6-0.39,0.97-0.75,0.93-0.94c-0.04-0.19-0.53-0.38-1.27-0.43
						c-0.13-0.01-0.27-0.01-0.42-0.01c-0.03,0.34-0.05,0.68-0.05,1.01c-0.01,0.28,0,0.56,0.01,0.84
						C11.81,15.83,12.08,15.68,12.31,15.52z"/>
					<path id="路径_33" class="st9" d="M14.22,9.97c0.02-0.19-0.41-0.52-1.13-0.8c-0.06-0.02-0.12-0.05-0.19-0.07
						c-0.25,0.53-0.46,1.07-0.64,1.62C13.4,10.53,14.19,10.22,14.22,9.97z"/>
					<path id="路径_34" class="st9" d="M35.08,19.07c-0.11,0.17,0.11,0.63,0.55,1.2c0.16,0.2,0.34,0.42,0.54,0.64
						c0.26-0.54,0.48-1.1,0.67-1.68c-0.14-0.05-0.29-0.1-0.42-0.14C35.7,18.89,35.18,18.91,35.08,19.07z"/>
					<path id="路径_35" class="st9" d="M36.16,14.07c-0.08,0.24,0.48,0.8,1.39,1.4c0.04-0.56,0.04-1.12,0-1.68h-0.03
						C36.74,13.76,36.22,13.89,36.16,14.07z"/>
					<path id="路径_36" class="st9" d="M20.34,5.92c-0.15-0.05-0.3-0.09-0.45-0.12c-0.09-0.02-0.17-0.03-0.26-0.04L19.4,5.75
						c-0.12,0-0.24,0-0.35,0.01c-0.08,0.01-0.13,0.01-0.13,0.01L18.79,5.8c-0.12,0.02-0.23,0.05-0.34,0.09l-0.22,0.08
						C18.15,6,18.07,6.04,18,6.08c-0.37,0.18-0.69,0.43-0.94,0.76c-0.07,0.08-0.13,0.18-0.17,0.27c-0.03,0.06-0.05,0.13-0.07,0.19
						c-0.02,0.1,0,0.15,0.04,0.18c0.04,0.03,0.1,0.02,0.19-0.03c0.05-0.03,0.1-0.07,0.15-0.12c0.05-0.06,0.13-0.12,0.21-0.19
						c0.25-0.24,0.52-0.45,0.83-0.61l0.19-0.09l0.18-0.06c0.09-0.03,0.19-0.05,0.28-0.07L19,6.3c0,0,0.04-0.01,0.11-0.01
						c0.1-0.01,0.19-0.02,0.29-0.01l0.19,0l0.21,0.03c0.12,0.02,0.24,0.06,0.36,0.1c0.1,0.04,0.19,0.08,0.28,0.13l0.14,0.07
						l0.13,0.09c0.18,0.12,0.28,0.21,0.36,0.27c0.08,0.05,0.14,0.06,0.18,0.04c0.04-0.02,0.07-0.07,0.05-0.18
						c-0.04-0.19-0.14-0.35-0.29-0.48C20.82,6.16,20.59,6.01,20.34,5.92z"/>
					<path id="路径_37" class="st9" d="M32.91,8.92c0.03,0.01,0.07,0.03,0.1,0.06l0.09,0.06c0.08,0.05,0.16,0.11,0.23,0.17
						c0.05,0.04,0.1,0.08,0.15,0.13l0.15,0.15c0.03,0.03,0.06,0.07,0.08,0.1l0.14,0.21c0.12,0.18,0.22,0.37,0.31,0.57
						c0.03,0.05,0.05,0.1,0.07,0.14c0.02,0.04,0.04,0.08,0.05,0.12c0.03,0.06,0.06,0.11,0.1,0.16c0.06,0.08,0.12,0.1,0.16,0.09
						c0.05-0.01,0.08-0.05,0.1-0.15c0.01-0.07,0.01-0.14,0.01-0.21c0-0.05-0.01-0.1-0.01-0.14c-0.01-0.05-0.03-0.11-0.05-0.17
						c-0.07-0.24-0.17-0.47-0.31-0.68l-0.17-0.24c-0.05-0.06-0.09-0.1-0.1-0.12l-0.17-0.19c-0.06-0.06-0.12-0.11-0.17-0.16
						C33.59,8.73,33.5,8.66,33.4,8.6l-0.11-0.07c-0.04-0.03-0.07-0.05-0.11-0.07C33.1,8.42,33,8.36,32.86,8.31
						c-0.15-0.06-0.31-0.11-0.47-0.14c-0.02,0-0.08-0.02-0.16-0.04l-0.3-0.03c-0.27-0.01-0.53,0.04-0.78,0.14
						c-0.11,0.04-0.21,0.11-0.3,0.18c-0.06,0.05-0.11,0.1-0.14,0.17c-0.05,0.1-0.04,0.15-0.01,0.19c0.05,0.04,0.12,0.05,0.19,0.02
						c0.09-0.03,0.22-0.08,0.42-0.13c0.2-0.05,0.4-0.07,0.6-0.06l0.24,0.03c0.06,0.01,0.11,0.02,0.13,0.03
						c0.13,0.03,0.26,0.08,0.38,0.13C32.77,8.84,32.85,8.89,32.91,8.92z"/>
					<path id="路径_38" class="st9" d="M24.26,17.65c-0.07,0-0.13,0-0.2-0.01c-0.08-0.01-0.15-0.03-0.22-0.06
						c-0.06,0.29-0.13,0.66-0.2,1.06c0.14,0.03,0.28,0.05,0.42,0.08C24.13,18.32,24.2,17.94,24.26,17.65z"/>
					<path id="路径_39" class="st9" d="M11.14,16.98l-0.2-0.02c-0.16-0.02-0.33-0.03-0.49-0.03c-0.22,0.01-0.28,0.05-0.28,0.09
						c0,0.04,0.05,0.09,0.27,0.12c0.2,0.03,0.45,0.05,0.48,0.05l0.19,0.02l0.19,0.02c0.11,0.02,0.23,0.03,0.34,0.05
						c0.23,0.04,0.46,0.07,0.68,0.13l0.19,0.04l0.19,0.04c0.03,0.01,0.27,0.08,0.46,0.14c0.2,0.06,0.27,0.04,0.29,0
						c0.02-0.04-0.02-0.1-0.21-0.2c-0.15-0.07-0.31-0.12-0.47-0.16l-0.19-0.05c-0.11-0.03-0.19-0.04-0.19-0.04
						c-0.26-0.06-0.51-0.1-0.77-0.14c-0.09-0.01-0.18-0.03-0.28-0.04C11.33,17.01,11.26,17,11.14,16.98z"/>
					<path id="路径_40" class="st9" d="M11.03,18.83l-0.19,0.05c-0.16,0.04-0.32,0.08-0.48,0.13c-0.2,0.07-0.25,0.13-0.24,0.17
						c0.01,0.04,0.08,0.07,0.29,0.03c0.2-0.03,0.45-0.1,0.48-0.11l0.19-0.04l0.19-0.05c0.25-0.06,0.49-0.11,0.74-0.17
						c0.1-0.02,0.19-0.05,0.29-0.07l0.19-0.04l0.19-0.04c0.03-0.01,0.29-0.05,0.48-0.09c0.21-0.05,0.26-0.08,0.26-0.13
						s-0.06-0.09-0.29-0.08c-0.17,0.01-0.33,0.03-0.5,0.07l-0.19,0.03l-0.19,0.04c-0.1,0.02-0.21,0.05-0.31,0.07
						c-0.24,0.05-0.49,0.11-0.73,0.17L11.03,18.83z"/>
					<path id="路径_41" class="st9" d="M36.85,22.04c-0.15-0.06-0.31-0.11-0.47-0.14l-0.19-0.05C36.08,21.82,36,21.8,36,21.8
						c-0.09-0.02-0.18-0.04-0.27-0.06c-0.25-0.05-0.51-0.1-0.77-0.14c0,0-0.08-0.01-0.19-0.02l-0.2-0.02
						c-0.17-0.02-0.33-0.02-0.5-0.01c-0.22,0.03-0.27,0.07-0.27,0.12c0,0.04,0.06,0.08,0.27,0.1c0.2,0.02,0.44,0.03,0.48,0.03
						l0.19,0.02l0.19,0.02c0.22,0.03,0.45,0.07,0.67,0.12c0.12,0.02,0.23,0.05,0.35,0.07l0.19,0.04l0.19,0.04
						c0.03,0.01,0.28,0.08,0.47,0.12c0.21,0.04,0.27,0.02,0.29-0.02C37.1,22.18,37.05,22.12,36.85,22.04z"/>
					<path id="路径_42" class="st9" d="M34.43,22.82l-0.17-0.1c-0.14-0.09-0.29-0.17-0.44-0.24c-0.21-0.08-0.29-0.06-0.3-0.02
						c-0.01,0.04,0.02,0.1,0.2,0.21c0.17,0.11,0.39,0.23,0.42,0.25l0.16,0.1l0.16,0.1c0.07,0.04,0.13,0.08,0.19,0.13
						c0.23,0.15,0.46,0.3,0.69,0.45l0.16,0.11l0.16,0.11c0.03,0.02,0.24,0.17,0.41,0.27c0.19,0.11,0.26,0.1,0.29,0.07
						c0.03-0.04,0-0.1-0.16-0.24c-0.13-0.1-0.26-0.2-0.4-0.29l-0.16-0.11l-0.16-0.11c-0.22-0.15-0.45-0.29-0.67-0.44
						c-0.07-0.05-0.15-0.1-0.22-0.14L34.43,22.82z"/>
					<path id="路径_43" class="st9" d="M19.66,10.03c-0.18-0.12-0.4-0.2-0.62-0.21c-0.07-0.01-0.13-0.01-0.2,0
						c-0.2,0.02-0.4,0.09-0.57,0.2c-0.32,0.21-0.59,0.49-0.79,0.81c-0.35,0.57-0.61,1.19-0.77,1.84c-0.17,0.66-0.23,1.34-0.18,2.01
						c0.03,0.43,0.16,0.84,0.38,1.21c0.11,0.17,0.25,0.31,0.42,0.43c0.17,0.12,0.37,0.19,0.58,0.22c0.11,0.02,0.22,0.02,0.34,0.01
						c0.42-0.05,0.81-0.26,1.08-0.58c0.46-0.55,0.79-1.2,0.96-1.9c0.2-0.73,0.27-1.49,0.21-2.24c-0.03-0.47-0.17-0.93-0.4-1.34
						C19.99,10.3,19.84,10.15,19.66,10.03L19.66,10.03z M18.02,13.3c-0.86-0.12-0.31-2.4,0.4-2.34
						C19.26,11.02,18.88,13.42,18.02,13.3L18.02,13.3z"/>
					<path id="路径_44" class="st9" d="M32.09,12.52c-0.13-0.13-0.3-0.23-0.48-0.29l0,0c-0.16-0.05-0.34-0.07-0.51-0.05
						c-0.2,0.02-0.4,0.09-0.57,0.19c-0.32,0.2-0.59,0.47-0.79,0.79c-0.35,0.55-0.6,1.16-0.75,1.8c-0.16,0.65-0.22,1.32-0.17,1.98
						c0.03,0.43,0.15,0.85,0.36,1.22c0.2,0.36,0.54,0.62,0.94,0.72c0.36,0.09,0.74,0.04,1.05-0.15c0.32-0.2,0.58-0.47,0.77-0.79
						c0.33-0.55,0.56-1.16,0.67-1.79c0.14-0.65,0.18-1.31,0.12-1.96c-0.03-0.42-0.14-0.83-0.32-1.21
						C32.34,12.81,32.23,12.65,32.09,12.52z M30.84,13.35c0.68,0.21,0.33,2.53-0.51,2.32C29.49,15.46,30.05,13.1,30.84,13.35z"/>
				</g>
			</g>
		</g>
		<g id="组_11" transform="translate(47.000000, 12.000000)">
			<path id="路径_45" class="st10" d="M94.07,12.12v-1.46c0-0.22-0.17-0.39-0.38-0.39h-0.48c-0.13,0-0.23-0.11-0.23-0.24V7.75
				c0-0.22-0.17-0.39-0.38-0.39h-1.53c-0.21,0-0.38,0.17-0.38,0.39v2.29c0,0.13-0.1,0.24-0.23,0.24h-0.94
				c-0.21,0-0.38,0.17-0.38,0.39v1.46c0,0.22,0.17,0.39,0.38,0.39h0.94c0.13,0,0.23,0.11,0.23,0.24v6.06
				c-0.01,0.16-0.1,0.3-0.25,0.37l-0.91,0.35c-0.23,0.1-0.39,0.33-0.4,0.59v1.55c-0.01,0.12,0.04,0.24,0.14,0.31
				c0.1,0.07,0.22,0.08,0.33,0.02l4.08-1.56c0.23-0.1,0.39-0.33,0.4-0.59v-1.55c0.01-0.12-0.04-0.24-0.14-0.31
				c-0.1-0.07-0.22-0.08-0.33-0.02l-0.47,0.18c-0.04,0.02-0.08,0.02-0.11-0.01s-0.05-0.06-0.05-0.1v-5.29c0-0.13,0.1-0.24,0.23-0.24
				h0.48C93.9,12.51,94.07,12.34,94.07,12.12z"/>
			<path id="路径_46" class="st10" d="M102.38,9.96V7.75c0-0.22-0.17-0.39-0.38-0.39h-1.84c-0.1,0-0.2,0.04-0.27,0.11
				s-0.11,0.17-0.11,0.28v3.22c0,0.2-0.12,0.38-0.3,0.44l-0.92,0.35c-0.07,0.04-0.16,0.03-0.22-0.02c-0.07-0.05-0.1-0.13-0.09-0.21
				V7.75c0-0.22-0.17-0.39-0.38-0.39h-1.87c-0.21,0-0.38,0.17-0.38,0.39v4.81c0,0.2-0.12,0.37-0.3,0.44l-0.66,0.25
				c-0.27,0.1-0.45,0.37-0.45,0.66v1.64c-0.01,0.12,0.04,0.24,0.14,0.31c0.1,0.07,0.22,0.08,0.33,0.02l0.63-0.24
				c0.07-0.03,0.15-0.02,0.21,0.03c0.06,0.04,0.1,0.12,0.1,0.2v6.42c0,0.62,0.24,1.22,0.67,1.66c0.43,0.44,1.01,0.69,1.62,0.69h6.3
				c0.61,0,1.19-0.25,1.62-0.69c0.43-0.44,0.67-1.03,0.67-1.66V19.2c0.01-0.12-0.04-0.24-0.14-0.31c-0.1-0.07-0.22-0.08-0.33-0.02
				l-1.72,0.65c-0.25,0.09-0.41,0.34-0.41,0.6v1.53c0,0.22-0.17,0.39-0.38,0.39h-4.9c-0.21,0-0.38-0.17-0.38-0.39v-6.81
				c0-0.2,0.12-0.38,0.3-0.44l0.92-0.35c0.07-0.04,0.16-0.03,0.22,0.02c0.07,0.05,0.1,0.13,0.09,0.21v3.28
				c-0.01,0.12,0.04,0.24,0.14,0.31c0.1,0.07,0.22,0.08,0.33,0.02l1.73-0.66c0.25-0.09,0.41-0.34,0.41-0.6v-3.35
				c0-0.2,0.12-0.37,0.3-0.44l0.91-0.35c0.07-0.04,0.16-0.03,0.22,0.02c0.07,0.05,0.1,0.13,0.09,0.21v3.28
				c-0.01,0.12,0.04,0.24,0.14,0.31s0.22,0.08,0.33,0.02l1.72-0.65c0.25-0.09,0.41-0.34,0.41-0.6v-3.68c0-0.6-0.29-1.16-0.77-1.51
				c-0.48-0.34-1.1-0.42-1.65-0.21l-1.38,0.52c-0.07,0.04-0.16,0.03-0.22-0.01C102.4,10.12,102.37,10.04,102.38,9.96z"/>
			<path id="路径_47" class="st10" d="M48.97,19.43l2.37-6c0.11-0.25,0.36-0.41,0.63-0.41h2.06c0.14-0.02,0.27,0.04,0.35,0.16
				c0.07,0.12,0.08,0.27,0,0.39l-2.37,6c-0.11,0.25-0.36,0.41-0.63,0.41h-2.06c-0.14,0.02-0.27-0.04-0.35-0.16
				C48.9,19.7,48.9,19.54,48.97,19.43L48.97,19.43z"/>
			<path id="路径_48" class="st10" d="M67.24,19.43l-2.37-6c-0.11-0.25-0.36-0.41-0.63-0.41h-2.06c-0.14-0.02-0.27,0.04-0.35,0.16
				c-0.07,0.12-0.08,0.27,0,0.39l2.37,6c0.11,0.25,0.36,0.41,0.63,0.41h2.06c0.14,0.02,0.27-0.04,0.35-0.16S67.31,19.54,67.24,19.43
				L67.24,19.43z"/>
			<path id="路径_49" class="st10" d="M59.27,6.71h-2.21c-0.21,0-0.38,0.17-0.38,0.39v14.26c0.01,0.11-0.02,0.22-0.1,0.29
				s-0.18,0.11-0.29,0.1h-0.93c-0.1,0-0.2,0.04-0.27,0.11c-0.07,0.07-0.11,0.17-0.11,0.28v2.09c0,0.22,0.17,0.39,0.38,0.39h2
				c0.62,0.05,1.23-0.18,1.67-0.63s0.67-1.07,0.62-1.71V7.09C59.65,6.88,59.48,6.71,59.27,6.71L59.27,6.71z"/>
			<path id="路径_50" class="st10" d="M2.75,23.77c-0.11,0.25-0.36,0.41-0.63,0.41H-0.1c-0.14,0.02-0.27-0.04-0.35-0.16
				c-0.07-0.12-0.08-0.27,0-0.39l2.7-6.12c0.11-0.25,0.36-0.41,0.63-0.41h2.22c0.14-0.02,0.27,0.04,0.35,0.16s0.08,0.27,0,0.39
				L2.75,23.77z"/>
			<path id="路径_51" class="st10" d="M17.28,23.77c0.11,0.25,0.36,0.41,0.63,0.41h2.22c0.14,0.02,0.27-0.04,0.35-0.16
				c0.07-0.12,0.08-0.27,0-0.39l-2.7-6.12c-0.11-0.25-0.36-0.41-0.63-0.41h-2.22c-0.14-0.02-0.27,0.04-0.35,0.16
				c-0.07,0.12-0.08,0.27,0,0.39L17.28,23.77z"/>
			<path id="路径_52" class="st10" d="M-0.43,13V8.84c0.01-2.72,1.94-5.03,4.57-5.47c1.65-0.27,11.73-1.93,14.04-2.31
				c0.11-0.02,0.22,0.02,0.31,0.09c0.09,0.07,0.13,0.18,0.14,0.3v2.17c0,0.27-0.19,0.51-0.46,0.55C17.61,4.25,6.31,6.12,4.95,6.33
				C3.62,6.52,2.64,7.69,2.66,9.06v3.25c0,0.25,0.2,0.46,0.45,0.46h5.21c0.06,0,0.12-0.03,0.16-0.07s0.07-0.11,0.07-0.17V8.02
				c0-0.1,0.04-0.2,0.11-0.28c0.07-0.07,0.17-0.11,0.27-0.11h2.3c0.21,0,0.38,0.17,0.38,0.39v4.52c0,0.06,0.02,0.12,0.07,0.17
				s0.1,0.07,0.16,0.07h7.95c0.1,0,0.2,0.04,0.27,0.11s0.11,0.17,0.11,0.28v2.22c0,0.1-0.04,0.2-0.11,0.28s-0.17,0.11-0.27,0.11
				h-7.95c-0.13,0-0.23,0.11-0.23,0.24v4.37c0,0.1-0.04,0.2-0.11,0.28c-0.07,0.07-0.17,0.11-0.27,0.11H8.94
				c-0.1,0-0.2-0.04-0.27-0.11c-0.07-0.07-0.11-0.17-0.11-0.28v-4.37c0-0.13-0.1-0.24-0.23-0.24H2.28c-0.72,0-1.41-0.29-1.92-0.81
				S-0.43,13.74-0.43,13z"/>
			<path id="矩形_1" class="st10" d="M8.94,22.49h2.3c0.21,0,0.38,0.17,0.38,0.39v1.73c0,0.22-0.17,0.39-0.38,0.39H8.94
				c-0.21,0-0.38-0.17-0.38-0.39v-1.73C8.56,22.66,8.73,22.49,8.94,22.49z"/>
			<g id="组_10" transform="translate(23.349056, 0.000000)">
				<path id="路径_53" class="st10" d="M7.89,13.19h1.94c0.13,0.02,0.26-0.04,0.34-0.16c0.07-0.11,0.08-0.26,0.01-0.38l-0.87-2.13
					c-0.11-0.26-0.36-0.43-0.64-0.43H6.74c-0.13-0.02-0.26,0.04-0.34,0.16c-0.07,0.11-0.08,0.26-0.01,0.38l0.87,2.13
					C7.36,13.01,7.61,13.19,7.89,13.19z"/>
				<path id="路径_54" class="st10" d="M25.32,7.5c-0.13-3.11-2.06-5.85-4.91-6.97s-6.08-0.43-8.23,1.78H4.69
					c-0.07,0-0.15-0.04-0.19-0.1C4.46,2.15,4.45,2.07,4.47,2l0.15-0.44C4.67,1.44,4.66,1.3,4.58,1.19c-0.07-0.11-0.2-0.16-0.32-0.15
					H2.45C2.16,1.06,1.9,1.24,1.8,1.52L0.91,4.2C0.86,4.32,0.87,4.45,0.95,4.56s0.2,0.16,0.32,0.15h3.15c0.08,0,0.15,0.04,0.19,0.11
					c0.04,0.07,0.05,0.15,0.02,0.22L4.14,6.24C4.07,6.42,3.9,6.54,3.71,6.54H0.63c-0.3,0-0.56,0.19-0.65,0.48l-0.45,1.35
					c-0.05,0.12-0.04,0.26,0.04,0.36s0.2,0.16,0.32,0.15h2.82c0.08,0,0.15,0.04,0.19,0.11S2.96,9.13,2.93,9.2l-1.4,3.44
					c-0.07,0.12-0.06,0.27,0.01,0.38c0.07,0.11,0.21,0.18,0.34,0.16h1.98c0.28,0,0.53-0.17,0.64-0.43l1.46-3.58
					C6.03,8.99,6.2,8.88,6.39,8.88h3.63c0.27,2.05,1.32,3.91,2.93,5.17H5.5c-1.52,0-2.75,1.26-2.75,2.81v5.33
					C2.74,23.74,3.97,25,5.5,25h12.12c1.52,0,2.75-1.26,2.75-2.81v-5.33c0-0.54-0.16-1.07-0.45-1.52
					C23.26,14.28,25.48,11.06,25.32,7.5z M10.06,6.54H7.38c-0.08,0-0.15-0.04-0.19-0.11C7.15,6.36,7.14,6.28,7.17,6.21L7.66,5
					C7.73,4.82,7.9,4.71,8.09,4.71h2.49C10.34,5.29,10.16,5.91,10.06,6.54L10.06,6.54z M17.63,21.55c0,0.52-0.41,0.94-0.92,0.94H6.4
					c-0.51,0-0.92-0.42-0.92-0.94v-0.49c0-0.22,0.17-0.39,0.38-0.39h11.38c0.21,0,0.38,0.17,0.38,0.39L17.63,21.55z M17.63,18.07
					c0,0.22-0.17,0.39-0.38,0.39H5.87c-0.21,0-0.38-0.17-0.38-0.39v-0.49c0-0.52,0.41-0.94,0.92-0.94h10.31
					c0.51,0,0.92,0.42,0.92,0.94L17.63,18.07z M22.74,8.19c-0.18,2.79-2.48,4.94-5.22,4.88c-2.74-0.06-4.95-2.31-5.01-5.11
					c-0.06-2.79,2.05-5.14,4.79-5.32c1.47-0.09,2.9,0.46,3.94,1.53C22.29,5.22,22.83,6.69,22.74,8.19z"/>
			</g>
			<path id="路径_55" class="st10" d="M81.94,17.95h-2.2c-0.12-0.02-0.24,0.04-0.31,0.15c-0.07,0.11-0.07,0.24,0,0.35l2.54,5.75
				c0.11,0.26,0.36,0.42,0.64,0.42h2.2c0.12,0.02,0.24-0.04,0.31-0.15c0.07-0.11,0.07-0.24,0-0.35l-2.54-5.75
				C82.46,18.12,82.21,17.95,81.94,17.95z"/>
			<path id="路径_56" class="st10" d="M86.07,14.11h-7.35c-0.08,0.01-0.17-0.03-0.21-0.1c-0.05-0.07-0.05-0.16,0-0.24l1.59-3.6
				c0.06-0.13,0.19-0.22,0.33-0.22h3.97c0.1,0,0.2-0.04,0.27-0.11c0.07-0.07,0.11-0.17,0.11-0.28V7.75c0-0.1-0.04-0.2-0.11-0.28
				C84.6,7.4,84.5,7.36,84.4,7.36H71.74c-0.21,0-0.38,0.17-0.38,0.39v1.82c0,0.21,0.17,0.39,0.38,0.39h4.91
				c0.08-0.01,0.17,0.03,0.21,0.1c0.05,0.07,0.05,0.16,0,0.24l-1.59,3.6c-0.06,0.13-0.19,0.22-0.33,0.22H69.8
				c-0.21,0-0.38,0.17-0.38,0.39v1.85c0,0.21,0.17,0.39,0.38,0.39h3.85c0.08-0.01,0.17,0.03,0.21,0.1c0.05,0.07,0.05,0.16,0,0.24
				l-3.11,7.05c-0.07,0.11-0.07,0.24,0,0.35c0.07,0.11,0.19,0.16,0.31,0.15h2.2c0.27,0,0.52-0.16,0.64-0.42l3.2-7.24
				c0.06-0.13,0.19-0.22,0.33-0.22h8.63c0.21,0,0.38-0.17,0.38-0.39V14.5C86.45,14.29,86.28,14.11,86.07,14.11L86.07,14.11z"/>
		</g>
	</g>
</g>
</svg>
